<?xml version="1.0" encoding="UTF-8"?><svg id="uuid-e17467c9-be5a-4c03-8b16-520adc60c8a9" xmlns="http://www.w3.org/2000/svg" viewBox="0 0 469.345 367.951"><path d="M245.385,148.017L122.104,76.844c-3.69-2.131-2.624-7.72,1.588-8.351l45.982-6.858c19.624-2.925,39.665,.714,57.008,10.352l98.365,54.681-79.662,21.349Z" fill="#006cd3"/><path d="M466.131,124.283c3.161,11.795-8.627,29.939-41.959,38.878l-170.669,45.728c-115.524,30.954-168.139,20.117-197.904-16.644-17.477-21.557-34.789-43.247-51.934-65.069-1.503-1.905-1.177-4.667,.728-6.17,.479-.377,1.03-.651,1.62-.804l32.237-8.641c4.479-1.201,9.261-.018,12.664,3.132l45.445,42.075L362.829,85.369c33.803-9.054,56.254,11.128,66.852,15.905,14.064,1.849,32.912,9.772,36.449,23.009h0Z" fill="#f9f9f9"/><path d="M466.131,124.304c3.153,11.758-8.663,29.91-41.93,38.82l-170.712,45.743c-115.502,30.947-168.117,20.146-197.868-16.601-17.494-21.547-34.808-43.24-51.941-65.076-1.515-1.906-1.198-4.678,.708-6.193,.484-.384,1.043-.663,1.641-.817l32.194-8.627c4.482-1.219,9.276-.031,12.672,3.139l45.467,42.067L362.786,85.369c23.016-6.169,40.748,1.225,53.108,8.054,5.763,3.146,10.366,6.292,13.781,7.836,14.093,1.834,32.904,9.779,36.456,23.045Z" fill="none" stroke="#666" stroke-miterlimit="10" stroke-width="5.446"/><g><path d="M334.811,115.156c-2.94,.836-4.684,3.857-3.936,6.822,.825,2.979,3.905,4.73,6.887,3.915,2.956-.816,4.709-3.854,3.936-6.822-.849-2.961-3.909-4.7-6.887-3.915Z" fill="#006cd3"/><circle cx="303.697" cy="129.256" r="5.567" fill="#006cd3"/><circle cx="271.148" cy="137.976" r="5.567" fill="#006cd3"/><circle cx="238.599" cy="146.697" r="5.567" transform="translate(55.577 358.717) rotate(-80.783)" fill="#006cd3"/><circle cx="205.978" cy="155.44" r="5.567" fill="#006cd3"/><circle cx="173.429" cy="164.161" r="5.567" fill="#006cd3"/><path d="M415.901,93.423l-33.267,8.917c-2.94,.836-4.684,3.857-3.936,6.822,.791,2.967,3.837,4.732,6.804,3.941,.006-.002,.011-.003,.017-.005l44.162-11.831c-3.414-1.551-8.025-4.698-13.781-7.844h0Z" fill="#006cd3"/></g><path d="M77.434,190.555l17.463-4.676c2.396-.648,4.864,.768,5.512,3.164,.314,1.159,.151,2.395-.453,3.432l-26.67,46.199c-3.581,6.203-9.479,10.73-16.398,12.585l-12.766,3.422c-2.397,.646-4.863-.773-5.509-3.17-.244-.906-.199-1.866,.13-2.745,6.582-17.71,13.157-35.42,19.747-53.122,6.307-1.704,12.621-3.393,18.942-5.089h0Z" fill="#4190ef"/><path d="M252.453,174.389l-71.173,123.281c-1.251,2.144-.527,4.896,1.617,6.147,1.197,.698,2.649,.805,3.936,.29l43.249-17.057c18.459-7.277,33.995-20.45,44.191-37.471l57.849-96.538" fill="#006cd3"/></svg>