<?xml version="1.0" encoding="UTF-8"?><svg id="uuid-413adadc-b514-4aee-b1c3-4192eb7a1561" xmlns="http://www.w3.org/2000/svg" viewBox="0 0 469.345 419.342"><path d="M406.518,30.952h-13.748v-6.874c0-11.389-9.233-20.621-20.621-20.621s-20.621,9.232-20.621,20.621v6.874h-27.495v-6.874c0-11.389-9.233-20.621-20.621-20.621s-20.621,9.232-20.621,20.621v6.874h-27.495v-6.874c0-11.389-9.232-20.621-20.621-20.621s-20.621,9.232-20.621,20.621v6.874h-27.495v-6.874c0-11.389-9.232-20.621-20.621-20.621s-20.621,9.232-20.621,20.621v6.874h-27.495v-6.874c0-11.389-9.232-20.621-20.621-20.621s-20.621,9.232-20.621,20.621v6.874h-13.748c-18.972,.023-34.346,15.397-34.369,34.369V326.525c.023,18.972,15.397,34.346,34.369,34.369h13.816c-7.283,12.149-11.768,25.768-13.129,39.868-.349,3.889,.947,7.746,3.574,10.634,2.608,2.862,6.301,4.492,10.173,4.489H392.77c3.863,0,7.547-1.623,10.153-4.475,2.628-2.89,3.925-6.75,3.574-10.641-1.363-14.099-5.848-27.718-13.129-39.868h13.15c18.972-.023,34.346-15.397,34.369-34.369V65.321c-.023-18.972-15.397-34.346-34.369-34.369Z" fill="none" stroke="#666" stroke-miterlimit="10" stroke-width="6.915"/><path d="M365.275,24.079c0-3.796,3.078-6.874,6.874-6.874s6.874,3.077,6.874,6.874v27.495c0,3.796-3.078,6.874-6.874,6.874s-6.874-3.077-6.874-6.874V24.079Z" fill="#006cd3"/><path d="M296.537,24.079c0-3.796,3.078-6.874,6.874-6.874s6.874,3.077,6.874,6.874v27.495c0,3.796-3.078,6.874-6.874,6.874s-6.874-3.077-6.874-6.874V24.079Z" fill="#006cd3"/><path d="M227.8,24.079c0-3.796,3.078-6.874,6.874-6.874s6.874,3.077,6.874,6.874v27.495c0,3.796-3.078,6.874-6.874,6.874s-6.874-3.077-6.874-6.874V24.079Z" fill="#006cd3"/><path d="M159.062,24.079c0-3.796,3.078-6.874,6.874-6.874s6.874,3.077,6.874,6.874v27.495c0,3.796-3.078,6.874-6.874,6.874s-6.874-3.077-6.874-6.874V24.079Z" fill="#006cd3"/><path d="M90.324,24.079c0-3.796,3.077-6.874,6.874-6.874s6.874,3.077,6.874,6.874v27.495c0,3.796-3.077,6.874-6.874,6.874s-6.874-3.077-6.874-6.874V24.079Z" fill="#006cd3"/><path d="M62.829,44.7h13.748v6.874c0,11.389,9.232,20.621,20.621,20.621s20.621-9.232,20.621-20.621v-6.874h27.495v6.874c0,11.389,9.232,20.621,20.621,20.621s20.621-9.232,20.621-20.621v-6.874h27.495v6.874c0,11.389,9.232,20.621,20.621,20.621s20.621-9.232,20.621-20.621v-6.874h27.495v6.874c0,11.389,9.233,20.621,20.621,20.621s20.621-9.232,20.621-20.621v-6.874h27.495v6.874c0,11.389,9.233,20.621,20.621,20.621s20.621-9.232,20.621-20.621v-6.874h13.748c11.389,0,20.621,9.232,20.621,20.621v20.621H42.207v-20.621c0-11.389,9.232-20.621,20.621-20.621Z" fill="none" stroke="#666" stroke-miterlimit="10" stroke-width="6.915"/><path d="M77.264,402.137l-.034-.124c4.674-51.505,60.359-92.961,131.392-101.34l7.678,17.686c1.095,2.508,3.573,4.128,6.31,4.124,.946,.004,1.883-.191,2.75-.571,3.477-1.515,5.071-5.56,3.561-9.039l-5.836-13.445c3.952-.206,7.912-.406,11.94-.406,29.14-.201,58.003,5.663,84.754,17.219l-6.193,10.283h-61.177c-4.597,0-8.889,2.299-11.438,6.125l-11.685,17.556c-2.107,3.159-1.254,7.427,1.904,9.534,3.159,2.107,7.427,1.254,9.534-1.904l11.692-17.563h61.383l11.685,17.563c2.107,3.159,6.375,4.011,9.534,1.904,3.159-2.107,4.011-6.375,1.904-9.534l-11.335-16.999,6.523-10.874c34.541,18.759,57.699,47.285,60.661,79.805H77.264Z" fill="none" stroke="#666" stroke-miterlimit="10" stroke-width="6.915"/><path d="M406.518,347.147h-22.766c-12.376-14.924-27.537-27.298-44.638-36.431l4.874-8.125c1.955-3.255,.901-7.479-2.354-9.434-3.255-1.955-7.479-.901-9.434,2.354l-5.417,9.018c-28.878-12.877-60.174-19.439-91.793-19.247-6.008,0-11.94,.241-17.796,.687l-23.763-54.791c7.942-2.843,16.31-4.314,24.746-4.351,2.402,.184,4.715-.954,6.035-2.969,10.607-13.077,26.92-20.166,43.717-18.999,2.817,.4,5.592-.963,6.998-3.437,1.397-2.478,1.124-5.56-.687-7.754-26.031-31.619-73.171-41.098-114.648-23.082-41.476,18.016-66.676,58.95-61.397,99.546,.367,2.823,2.437,5.127,5.203,5.795,.53,.123,1.072,.185,1.615,.186,2.264,0,4.383-1.117,5.664-2.983,10.617-13.084,26.943-20.173,43.752-18.999,2.36,.34,4.73-.556,6.276-2.371,5.796-6.133,12.584-11.245,20.078-15.122l22.072,50.818c-49.574,6.826-91.909,29.076-116.655,59.692h-23.371c-11.389,0-20.621-9.233-20.621-20.621V99.69H427.139v226.835c0,11.389-9.233,20.621-20.621,20.621Z" fill="none" stroke="#666" stroke-miterlimit="10" stroke-width="6.915"/><path d="M158.223,235.289c-7.142-21.652-4.64-39.579,7.101-51.505,16.593-.419,31.509,9.974,42.48,29.97-18.213,2.408-35.389,9.869-49.581,21.536Z" fill="#006cd3"/><path d="M220.286,207.987c-6.59-13.278-16.909-24.346-29.695-31.846,22.065-3.333,44.542,2.366,62.352,15.81-12.171,2.179-23.486,7.73-32.657,16.023v.014Z" fill="#006cd3"/><path d="M145.493,240.465c-12.316,1.048-24.092,5.528-33.991,12.93,2.318-22.17,13.468-42.472,30.932-56.324-3.221,14.455-2.158,29.534,3.059,43.394Z" fill="#006cd3"/><path d="M372.465,168.428h-7.877c-.638-2.461-1.622-4.819-2.921-7.004l5.561-5.561c2.731-2.637,2.806-6.989,.169-9.72-2.637-2.731-6.989-2.806-9.72-.169-.057,.055-.113,.112-.169,.169l-5.561,5.561c-2.185-1.3-4.543-2.283-7.004-2.921v-7.85c0-3.796-3.078-6.874-6.874-6.874s-6.874,3.078-6.874,6.874v7.85c-2.461,.638-4.819,1.622-7.004,2.921l-5.561-5.561c-2.731-2.637-7.082-2.562-9.72,.169-2.573,2.664-2.573,6.887,0,9.551l5.561,5.561c-1.29,2.187-2.264,4.545-2.894,7.004h-7.85c-3.796,0-6.874,3.078-6.874,6.874s3.078,6.874,6.874,6.874h7.85c.638,2.461,1.622,4.819,2.921,7.004l-5.561,5.561c-2.731,2.637-2.806,6.989-.169,9.72,2.637,2.731,6.989,2.806,9.72,.169,.057-.055,.113-.112,.169-.169l5.561-5.561c2.185,1.3,4.543,2.283,7.004,2.921v7.85c0,3.796,3.078,6.874,6.874,6.874s6.874-3.078,6.874-6.874v-7.85c2.461-.638,4.819-1.622,7.004-2.921l5.561,5.561c2.637,2.731,6.989,2.806,9.72,.169,2.731-2.637,2.806-6.989,.169-9.72-.055-.057-.112-.113-.169-.169l-5.561-5.561c1.29-2.187,2.264-4.545,2.894-7.004h7.85c3.796,0,6.874-3.078,6.874-6.874s-3.078-6.874-6.874-6.874h.028Zm-34.369,20.621c-7.593,0-13.748-6.155-13.748-13.748s6.155-13.748,13.748-13.748,13.748,6.155,13.748,13.748-6.155,13.748-13.748,13.748Z" fill="#006cd3"/></svg>