<?xml version="1.0" encoding="UTF-8"?><svg id="uuid-2b386493-eda6-4544-8bcc-303d5334fc5d" xmlns="http://www.w3.org/2000/svg" viewBox="0 0 433.871 367.951"><rect x="8.053" y="97.009" width="99.592" height="268.071" fill="none" stroke="#666" stroke-miterlimit="10" stroke-width="5.742"/><rect x="223.819" y="299.845" width="44.868" height="65.235" fill="#006cd3"/><rect x="150.656" y="276.436" width="133.306" height="7.803" fill="#006cd3"/><rect x="150.656" y="0" width="133.306" height="14.199" rx=".599" ry=".599" fill="#006cd3"/><rect x="165.942" y="299.845" width="42.27" height="65.235" fill="#006cd3"/><path d="M311.355,365.08V16.496H123.251V365.08h27.085v-65.235h-7.475c-4.31,0-7.803-3.494-7.803-7.803v-23.41c0-4.31,3.494-7.803,7.803-7.803h148.9c4.31,0,7.803,3.494,7.803,7.803v23.41c0,4.31-3.494,7.803-7.803,7.803h-7.475v65.235h27.069Z" fill="none" stroke="#666" stroke-miterlimit="10" stroke-width="5.742"/><rect x="326.961" y="97.009" width="98.859" height="268.071" fill="none" stroke="#666" stroke-miterlimit="10" stroke-width="5.742"/><g><rect x="360.796" y="276.428" width="31.213" height="31.213" fill="#006cd3"/><rect x="360.796" y="202.977" width="31.213" height="31.213" fill="#006cd3"/><rect x="360.796" y="129.517" width="31.213" height="31.213" fill="#006cd3"/><rect x="41.864" y="276.428" width="31.213" height="31.213" fill="#006cd3"/><rect x="41.864" y="202.977" width="31.213" height="31.213" fill="#006cd3"/><rect x="41.864" y="129.517" width="31.213" height="31.213" fill="#006cd3"/><rect x="158.584" y="122.37" width="31.213" height="31.213" fill="#006cd3"/><rect x="158.584" y="48.911" width="31.213" height="31.213" fill="#006cd3"/><rect x="158.584" y="192.809" width="31.213" height="31.213" fill="#006cd3"/><rect x="242.78" y="122.37" width="31.213" height="31.213" fill="#006cd3"/><rect x="242.78" y="192.809" width="31.213" height="31.213" fill="#006cd3"/><rect x="242.78" y="48.911" width="31.213" height="31.213" fill="#006cd3"/></g></svg>