<?xml version="1.0" encoding="UTF-8"?><svg id="uuid-907e8144-3fd5-4a55-aa93-9fbfe1a0deb6" xmlns="http://www.w3.org/2000/svg" viewBox="0 0 469.345 450.281"><g><path d="M235.585,428.649h-1.305l-200.899-54.791c-1.739-.87-3.044-2.609-3.044-4.348V80.336c0-1.305,.435-2.609,1.739-3.479,.87-.87,2.609-1.305,3.914-.87l200.899,54.791c1.739,.435,3.479,2.174,3.044,4.348V423.865c0,1.305-.87,2.609-1.739,3.479s-1.739,1.305-2.609,1.305Zm-196.551-62.618l192.203,52.617V138.606L39.034,85.989V366.031Z" fill="#666"/><path d="M235.585,428.649c-2.609,0-4.348-1.739-4.348-4.348V135.127c0-2.174,1.305-3.914,3.044-4.348l199.16-54.791c2.174-.435,4.783,.87,5.218,3.044V369.51c0,2.174-1.305,3.914-3.044,4.348l-199.16,54.791h-.87Zm4.348-290.043V418.647l190.463-52.617V85.989l-190.463,52.617Z" fill="#666"/><path d="M434.31,84.685h-1.305L235.585,30.329,35.99,84.685c-2.609,.435-4.783-.87-5.653-3.044-.435-2.174,.87-4.783,3.044-5.218L234.28,21.632h2.174l198.725,54.356c2.609,.435,3.914,2.609,3.914,4.783-.435,2.609-2.609,4.348-4.783,3.914h0Zm-100.015,311.351v-98.276c0-2.174,1.305-3.914,3.479-4.348l55.226-13.48c1.305-.435,2.609,0,3.479,.87s1.739,2.174,1.739,3.479v96.536c0,2.609-8.697,2.609-8.697,0v-91.318l-46.529,11.306v95.232c0,2.609-8.697,2.609-8.697,0h0Zm87.839-152.631c-2.609,.435-4.783-1.305-4.783-3.914s1.305-4.783,3.914-4.783l12.611-3.479c2.174-.435,4.348,7.827,2.174,8.262l-12.611,3.479c-.435,.435-.87,.435-1.305,.435Zm-186.549,48.268h-.87l-13.045-3.479c-2.174-.435-3.914-3.044-3.044-5.218,.435-2.174,3.044-3.914,5.218-3.044l12.176,3.044,10.871-2.609c2.174-.435,4.783,.87,5.218,3.044s-.87,4.783-3.044,5.218l-11.741,3.044h-1.739Zm36.527-9.567c-2.609,.435-4.783-1.305-4.783-3.914s1.305-4.783,3.914-4.783l24.786-6.523c2.174-.435,4.783,.87,5.218,3.044s-.87,4.783-3.044,5.218l-24.786,6.523-1.305,.435Zm-74.794,0h-.87l-25.221-6.523c-2.174-.435-3.914-2.609-3.479-5.218,.435-2.174,2.609-3.914,5.218-3.479h.87l25.221,6.523c2.609,.435,3.914,2.609,3.914,4.783s-3.479,4.348-5.653,3.914h0Zm124.801-12.611c-2.609,.435-4.783-1.305-4.783-3.914s1.305-4.783,3.914-4.783l24.786-6.523c2.174-.435,4.783,.87,5.218,3.044s-.87,4.783-3.044,5.218l-24.786,6.523-1.305,.435Zm-174.809,0h-.87l-24.786-6.958c-2.174-.435-3.914-3.044-3.044-5.218,.435-2.174,3.044-3.914,5.218-3.044l24.786,6.523c2.609,.435,3.914,2.609,3.914,4.783-.435,2.174-2.609,3.914-5.218,3.914h0Zm224.816-13.045c-2.609,.435-4.783-1.305-4.783-3.914s1.305-4.783,3.914-4.783l24.786-6.523c2.174-.435,4.783,.87,5.218,3.044s-.87,4.783-3.044,5.218l-24.786,6.523-1.305,.435Zm-274.823,0h-.87l-24.786-6.958c-2.174-.435-3.914-3.044-3.044-5.218,.435-2.174,3.044-3.914,5.218-3.044l25.221,6.523c2.609,.435,3.914,2.609,3.914,4.783s-3.044,3.914-5.653,3.914Zm-50.007-13.045h-.87l-12.611-3.479c-2.174-.435-.435-9.132,2.174-8.697l12.611,3.479c2.609,.435,3.914,2.609,3.914,4.783s-3.044,4.348-5.218,3.914Zm188.289-7.392h-.87L33.816,184.265c-2.174-.435-.87-9.132,1.305-8.697h.87l199.595,51.312,198.29-51.312c2.174-.87,5.218,7.392,3.044,8.262h-.87l-199.595,52.182h-.87Z" fill="#666"/><path d="M235.585,194.266h-.87L33.816,142.519c-2.174-.435-.87-9.132,1.305-8.697h.87l199.595,51.312,198.29-51.312c2.174-.87,5.218,7.392,3.044,8.262h-.87l-199.595,52.182h-.87Z" fill="#666"/></g><path d="M231.236,184.016c-64.068-16.471-128.135-32.941-192.203-49.412v-48.616c64.068,17.539,128.135,35.078,192.203,52.617v45.411Z" fill="#51a2ff"/><path d="M430.396,134.723c-63.488,16.429-126.975,32.858-190.463,49.286v-45.403c63.488-17.539,126.975-35.078,190.463-52.617v48.733Z" fill="#51a2ff"/></svg>