<?xml version="1.0" encoding="UTF-8"?><svg id="uuid-385db7f3-620a-48fc-bbef-6234178e9136" xmlns="http://www.w3.org/2000/svg" viewBox="0 0 469.345 421.776"><path d="M137.77,206.099h17.084c3.968,12.956,10.897,24.789,20.368,34.592-16.75-5.863-30.336-18.468-37.451-34.592h0Z" fill="#006cd3"/><path d="M260.183,180.392c0,4.973-.628,9.793-1.707,14.443h-19.234c.789-4.762,1.237-9.627,1.237-14.582,0-4.853-.438-9.623-1.209-14.3h19.208c1.079,4.649,1.705,9.468,1.705,14.439h0Z" fill="#006cd3"/><path d="M229.215,180.532c0,4.865-.466,9.648-1.354,14.304h-25.974v-28.882h25.949c.918,4.805,1.38,9.686,1.378,14.578Z" fill="#006cd3"/><path d="M166.753,206.099h23.871v33.399c-11.035-8.816-19.203-20.354-23.871-33.399h0Z" fill="#006cd3"/><path d="M201.887,238.63v-32.532h22.878c-4.515,12.601-12.346,23.816-22.878,32.532Z" fill="#006cd3"/><path d="M201.887,154.689v-32.535c10.51,8.701,18.329,19.903,22.849,32.535h-22.849Z" fill="#006cd3"/><path d="M190.624,121.286v33.403h-23.902c4.663-13.015,12.842-24.571,23.902-33.403Z" fill="#006cd3"/><path d="M190.624,165.953v28.882h-26.973c-.918-4.806-1.38-9.689-1.378-14.582,0-4.864,.466-9.645,1.353-14.3h26.998Z" fill="#006cd3"/><path d="M152.218,194.835h-18.182c-1.079-4.65-1.707-9.47-1.707-14.443s.627-9.791,1.706-14.439h18.21c-.788,4.76-1.236,9.624-1.236,14.578,0,4.854,.439,9.627,1.209,14.304h0Z" fill="#006cd3"/><path d="M215.64,241.296c9.726-9.869,16.919-21.946,20.963-35.198h18.14c-7.351,16.658-21.586,29.609-39.103,35.198Z" fill="#006cd3"/><path d="M254.745,154.689h-18.109c-4.053-13.255-11.254-25.331-20.988-35.199,17.515,5.59,31.748,18.542,39.097,35.199Z" fill="#006cd3"/><path d="M175.227,120.092c-9.45,9.787-16.37,21.611-20.344,34.597h-17.115c7.115-16.127,20.705-28.735,37.459-34.597Z" fill="#006cd3"/><path d="M394.523,76.439c-3.859-7.48-10.375-12.998-18.346-15.543L197.977,3.998c-7.968-2.552-16.478-1.826-23.957,2.038-7.478,3.858-12.998,10.373-15.543,18.344l-11.827,37.037h-43.924c-17.332,0-31.432,14.102-31.432,31.434V387.846c0,17.332,14.1,31.43,31.432,31.43h187.062c17.332,0,31.432-14.098,31.432-31.43v-51.489l75.34-235.96c2.545-7.968,1.823-16.478-2.037-23.958h0Z" fill="none" stroke="#666" stroke-miterlimit="10" stroke-width="5"/><path d="M385.831,96.973l-64.611,202.358V92.852c0-17.332-14.1-31.434-31.432-31.434H158.471l10.734-33.612c1.63-5.104,5.174-9.281,9.979-11.763,4.804-2.479,10.259-2.944,15.369-1.316l178.2,56.899c5.104,1.631,9.282,5.174,11.761,9.981,2.479,4.803,2.948,10.262,1.318,15.366h0Z" fill="#006cd3"/><path d="M272.226,299.125c0,3.11-2.522,5.632-5.632,5.632H125.917c-3.111-.053-5.589-2.617-5.537-5.728,.051-3.036,2.5-5.485,5.537-5.537h140.678c3.11,0,5.631,2.521,5.631,5.631h0Z" fill="#006cd3"/><path d="M272.226,338.881c0,3.11-2.522,5.632-5.632,5.632H125.917c-3.111-.053-5.589-2.617-5.537-5.728,.051-3.036,2.5-5.485,5.537-5.537h140.678c3.11,0,5.631,2.522,5.631,5.632Z" fill="#006cd3"/><path d="M240.319,378.639c0,3.11-2.522,5.632-5.632,5.632h-76.862c-3.111-.053-5.589-2.617-5.537-5.728,.051-3.036,2.5-5.485,5.537-5.537h76.862c3.111,0,5.632,2.522,5.632,5.632h0Z" fill="#006cd3"/></svg>